<svg xmlns="http://www.w3.org/2000/svg" xmlns:xlink="http://www.w3.org/1999/xlink" viewBox="0 0 98.92 46.64"><defs><style>.cls-1{fill:url(#Dégradé_sans_nom_8);}.cls-2{fill:url(#Dégradé_sans_nom_8-2);}</style><linearGradient id="Dégradé_sans_nom_8" x1="92.13" y1="23.32" x2="54.46" y2="23.32" gradientUnits="userSpaceOnUse"><stop offset="0" stop-color="#8da4ce"/><stop offset="1" stop-color="#f7cac9"/></linearGradient><linearGradient id="Dégradé_sans_nom_8-2" x1="0" y1="23.94" x2="98.92" y2="23.94" xlink:href="#Dégradé_sans_nom_8"/></defs><title>Fichier 1</title><g id="Calque_2" data-name="Calque 2"><g id="Calque_1-2" data-name="Calque 1"><path class="cls-1" d="M92.13,24.5a29.46,29.46,0,0,1-1.36,9.27,20.2,20.2,0,0,1-3.82,7A16.57,16.57,0,0,1,81,45.11a19.94,19.94,0,0,1-15.31,0,17,17,0,0,1-6-4.38,20.17,20.17,0,0,1-3.9-7,28.85,28.85,0,0,1-1.39-9.27V22.2a29,29,0,0,1,1.39-9.29,20.61,20.61,0,0,1,3.87-7,16.63,16.63,0,0,1,5.94-4.4A18.71,18.71,0,0,1,73.3,0,18.9,18.9,0,0,1,81,1.53a16.6,16.6,0,0,1,6,4.4,20.21,20.21,0,0,1,3.83,7,29.61,29.61,0,0,1,1.36,9.29Zm-7.89-2.37a27.7,27.7,0,0,0-.73-6.72,14.33,14.33,0,0,0-2.14-4.88,9.25,9.25,0,0,0-3.44-3,10.28,10.28,0,0,0-4.63-1,10,10,0,0,0-4.55,1,9.42,9.42,0,0,0-3.44,3,14.57,14.57,0,0,0-2.18,4.88,26.62,26.62,0,0,0-.76,6.72V24.5a26.81,26.81,0,0,0,.76,6.73,14.55,14.55,0,0,0,2.2,4.91,9.46,9.46,0,0,0,3.48,3,10.13,10.13,0,0,0,4.57,1,9.28,9.28,0,0,0,8.06-4q2.82-4,2.82-11.66Z"/><polygon class="cls-2" points="46.58 28.64 46.58 1.25 36.38 1.25 23.32 36.04 10.23 1.25 0 1.25 0 46.64 7.86 46.64 7.86 31.68 7.08 11.69 20.45 46.64 26.09 46.64 39.5 11.66 38.84 28.64 38.84 33.78 98.92 33.78 98.92 28.64 46.58 28.64"/></g></g></svg>